<svg version="1.1" id="Layer_1" xmlns="http://www.w3.org/2000/svg" xmlns:xlink="http://www.w3.org/1999/xlink" x="0px" y="0px"
	 width="100%" viewBox="0 0 483 534" enable-background="new 0 0 483 534" xml:space="preserve">
<path fill="#FFFFFF" opacity="1.000000" stroke="none" 
	d="
M484.000000,210.000000 
	C484.000000,318.666656 484.000000,426.833282 484.000000,535.000000 
	C323.000061,535.000000 162.000122,535.000000 1.000144,535.000000 
	C1.000096,357.000092 1.000096,179.000214 1.000048,1.000240 
	C161.999863,1.000160 322.999725,1.000160 483.999786,1.000080 
	C484.000000,70.500000 484.000000,140.000000 484.000000,210.000000 
M302.781036,437.244110 
	C296.447418,432.809143 290.113831,428.374176 283.350006,423.637939 
	C273.750580,440.363586 259.808167,448.621826 240.539398,443.666718 
	C225.316605,439.751984 219.215408,427.897461 217.231079,413.000000 
	C219.081818,413.000000 220.898712,413.000000 222.715622,413.000000 
	C249.530136,413.000000 276.344910,412.942169 303.158844,413.067963 
	C306.802948,413.085052 308.399963,412.094696 308.031616,408.281830 
	C307.260437,400.298340 307.309967,392.179230 305.864319,384.329071 
	C302.910400,368.288696 295.315643,354.748535 281.670929,345.221558 
	C270.844269,337.662140 258.471130,336.635345 245.714859,336.949005 
	C223.174500,337.503265 206.500778,348.126190 196.367950,367.603088 
	C185.868362,387.784912 185.240494,409.400238 192.529678,430.937317 
	C197.485184,445.579254 206.237350,457.703186 220.705750,464.055298 
	C241.620636,473.237579 262.819672,473.308105 282.970612,461.831085 
	C291.953430,456.714935 298.981903,449.009766 303.572845,438.929657 
	C303.396057,438.581879 303.219299,438.234131 302.781036,437.244110 
M161.639771,38.061707 
	C152.550766,46.918915 144.847336,56.833893 138.992355,68.114365 
	C126.627892,91.936348 122.470032,116.978004 126.889290,143.618622 
	C130.833908,167.398010 140.692825,187.983063 157.649185,205.084518 
	C163.645889,211.132507 169.994385,216.831894 176.187759,222.684616 
	C188.227646,234.062256 200.219940,245.490982 212.334717,256.788330 
	C218.602936,262.633606 225.134918,268.195007 231.465561,273.974670 
	C236.218491,278.313965 248.568771,278.018311 253.391174,273.261353 
	C263.520538,263.269409 274.094910,253.728256 284.498810,244.015167 
	C289.820923,239.046463 295.142334,234.076462 300.513062,229.160553 
	C306.959717,223.259781 313.737183,217.689453 319.847656,211.462112 
	C324.857208,206.356766 324.311890,195.148102 318.717865,190.432968 
	C312.485443,185.179764 305.067108,183.750137 298.171844,189.401062 
	C278.888519,205.204407 257.263397,212.191940 232.203644,209.151321 
	C215.254028,207.094742 200.119034,200.853027 187.659012,189.822525 
	C162.426102,167.484512 152.041183,139.325516 159.078110,105.822014 
	C163.828506,83.204971 176.131943,65.081940 195.363525,52.480419 
	C212.898239,40.990780 232.287766,35.964405 253.658310,38.834427 
	C272.505768,41.365601 288.559662,49.095688 302.249969,61.868896 
	C311.562866,70.557892 318.496948,81.150040 323.345795,92.897446 
	C332.684814,115.523346 324.827606,135.429092 302.927917,144.818329 
	C302.927917,136.564041 302.927917,128.483261 302.927917,120.291451 
	C282.777313,120.291451 263.052917,120.291451 243.334366,120.291451 
	C243.334366,140.309738 243.334366,160.034698 243.334366,180.000000 
	C258.481598,180.000000 273.296295,180.067581 288.109589,179.954636 
	C292.035461,179.924698 296.027618,179.700409 299.869141,178.949951 
	C323.214813,174.389359 341.227203,162.573715 350.936462,140.136993 
	C358.644867,122.323921 359.434723,103.859978 353.994446,85.385277 
	C347.386566,62.945484 333.527435,45.271122 315.390045,30.982323 
	C289.241333,10.382118 259.058594,3.031429 226.503708,7.260107 
	C202.104340,10.429430 180.232452,20.391218 161.639771,38.061707 
M190.328522,339.000000 
	C181.347092,339.000000 172.365646,339.000000 163.426132,339.000000 
	C154.086838,369.221252 144.829559,399.177155 135.572281,429.133026 
	C135.038788,429.177399 134.505310,429.221771 133.971832,429.266113 
	C124.089325,399.216553 114.206825,369.166962 104.396851,339.337952 
	C94.879410,339.337952 85.496246,339.337952 75.551041,339.337952 
	C78.867996,348.728271 81.762505,357.742462 85.243286,366.524292 
	C88.169952,373.908173 89.974571,380.700500 86.297592,388.728058 
	C82.577965,396.848694 80.676895,405.798065 77.919395,414.365173 
	C76.259796,419.521301 74.485977,424.640656 72.319687,431.099792 
	C69.244820,421.253357 66.596901,412.861786 64.003899,404.453339 
	C57.660175,383.882202 51.384548,363.289764 44.922760,342.755890 
	C44.463406,341.296173 42.741405,339.198578 41.556511,339.165039 
	C31.434761,338.878662 21.301451,339.000946 10.958003,339.000946 
	C11.128887,340.227264 11.113148,341.068542 11.369785,341.816376 
	C17.571682,359.888214 23.776073,377.959320 30.035076,396.011444 
	C37.980751,418.928223 46.083012,441.791901 53.806656,464.782959 
	C54.734470,467.544830 55.841721,468.042419 58.233677,468.023987 
	C66.396713,467.961060 74.565102,468.138824 82.719772,467.870056 
	C84.162857,467.822510 86.340012,466.373260 86.833168,465.064484 
	C89.776405,457.253326 92.320663,449.292053 95.007683,441.384125 
	C97.451263,434.192688 99.906128,427.005066 102.654686,418.939270 
	C103.831985,420.886078 104.567093,421.748901 104.925240,422.746979 
	C109.913124,436.647552 115.004379,450.515015 119.669159,464.524170 
	C120.615799,467.367126 121.769501,468.089386 124.437767,468.041138 
	C131.266220,467.917603 138.167084,467.400879 144.909210,468.173706 
	C151.263275,468.902008 153.331146,465.832397 155.054443,460.680054 
	C165.703079,428.842438 176.527130,397.063416 187.327164,365.276550 
	C190.253159,356.664703 193.297577,348.093079 196.462738,339.000000 
	C194.241577,339.000000 192.760071,339.000000 190.328522,339.000000 
M352.007446,364.513000 
	C362.174500,376.671265 372.277100,388.884552 382.566589,400.938293 
	C384.472076,403.170471 384.137817,404.445648 382.273315,406.307831 
	C379.842133,408.735992 377.653900,411.415955 375.449615,414.061279 
	C365.621796,425.855682 355.812103,437.665253 346.023560,449.492279 
	C341.201691,455.318390 336.440155,461.194458 330.873901,467.998047 
	C343.158630,467.998047 354.081604,468.049652 365.002380,467.918427 
	C366.099426,467.905243 367.460419,467.024963 368.229553,466.139404 
	C374.880432,458.482269 381.437012,450.742889 387.994843,443.005249 
	C392.918610,437.195587 397.802917,431.352448 402.949066,425.233795 
	C405.138214,427.908722 406.777710,429.921814 408.427612,431.926361 
	C415.995789,441.121307 423.494385,450.375092 431.177521,459.473022 
	C433.749573,462.518738 436.607361,467.341400 439.657745,467.604492 
	C450.969971,468.580170 462.416962,467.993225 474.768982,467.993225 
	C456.372314,446.080627 438.668060,424.992767 420.868561,403.791473 
	C438.687500,382.387177 456.456909,361.042358 474.806763,339.000336 
	C462.649841,339.000336 451.670624,338.973877 440.691986,339.042999 
	C439.644379,339.049622 438.215179,339.325348 437.615204,340.030731 
	C432.330292,346.244110 427.222565,352.607605 422.004944,358.878876 
	C415.571472,366.611603 409.082916,374.298523 402.579376,382.051453 
	C398.720917,377.507507 395.077057,373.310638 391.537872,369.027252 
	C385.511475,361.733795 379.640686,354.309723 373.518738,347.098267 
	C371.047485,344.187225 368.261230,339.622681 365.318634,339.375275 
	C354.338318,338.452087 343.233795,339.006439 330.772583,339.006439 
	C338.263885,348.039703 344.881714,356.019714 352.007446,364.513000 
M388.151123,515.919495 
	C390.597382,509.188416 393.043671,502.457306 395.650635,495.283997 
	C386.188812,494.048157 390.070251,503.660828 385.422943,505.693970 
	C381.515808,503.395508 384.955200,494.869202 377.183472,495.117859 
	C376.446930,498.988708 380.635986,503.158844 375.316162,505.670929 
	C374.518158,503.024597 373.907898,500.313080 372.845764,497.791931 
	C372.371613,496.666504 371.061859,495.246765 370.005524,495.133423 
	C366.769623,494.786224 363.472748,495.007141 360.000000,495.007141 
	C360.000000,498.815277 359.912811,501.968231 360.023438,505.114227 
	C360.144531,508.556458 359.351868,511.940430 355.463043,511.764496 
	C352.282166,511.620575 350.733856,508.752594 350.955597,505.237274 
	C351.163147,501.947113 351.000031,498.633606 351.000031,495.486053 
	C344.174469,495.486053 337.754578,495.486053 331.273529,495.486053 
	C331.273529,502.215881 331.273529,508.968536 331.273529,515.818298 
	C332.180878,515.891052 332.826141,516.000977 333.466888,515.979248 
	C334.233337,515.953247 334.995972,515.814758 336.000000,515.696777 
	C336.000000,514.061462 335.995239,512.751465 336.000763,511.441467 
	C336.038086,502.606537 336.041779,502.613983 344.034027,499.413879 
	C344.612091,499.182465 345.101715,498.730194 346.001831,498.137329 
	C346.001831,501.510132 345.874481,504.479034 346.028290,507.433319 
	C346.350891,513.629456 349.944397,516.756409 356.018555,516.572266 
	C356.979950,516.543213 357.970245,517.468445 358.947205,517.952393 
	C358.131836,518.960999 357.295471,520.842407 356.504852,520.823425 
	C353.485260,520.750793 350.480347,520.066284 346.958984,519.532898 
	C347.206451,520.926331 347.163818,523.864746 347.856049,524.049438 
	C351.388672,524.992126 355.280853,526.112549 358.719849,525.455994 
	C362.231262,524.785583 364.848175,521.684692 364.977264,517.540405 
	C365.080872,514.214050 364.999634,510.881897 364.999939,507.552307 
	C365.000275,504.073853 365.000000,500.595398 365.000000,497.116943 
	C365.585907,497.041382 366.171814,496.965820 366.757751,496.890228 
	C368.529816,502.353455 370.169464,507.866150 372.177979,513.241028 
	C372.615845,514.412781 374.358459,515.783569 375.525391,515.807068 
	C376.739685,515.831482 378.084900,514.446350 379.174652,513.458801 
	C379.732544,512.953125 379.856995,511.969116 380.177368,511.201294 
	C380.353912,511.869080 380.530457,512.536865 380.706970,513.204651 
	C382.909790,514.132629 385.112610,515.060608 388.151123,515.919495 
M345.000000,402.565796 
	C344.883301,394.611053 340.758911,390.930695 332.038849,391.000031 
	C325.296936,391.053619 320.999725,395.529999 321.000031,402.499084 
	C321.000336,410.305908 325.098938,414.945251 332.043945,415.000000 
	C340.768066,415.068787 344.884705,411.392303 345.000000,402.565796 
M462.818695,495.006012 
	C460.387634,495.899994 457.956604,496.793945 455.732117,497.611969 
	C451.720276,491.916870 445.881989,497.513947 441.221558,494.363983 
	C441.221558,501.984863 441.221558,508.752289 441.221558,515.510803 
	C444.959259,515.734985 444.959229,515.734985 444.999908,511.702057 
	C445.108612,500.927429 445.374939,500.626587 455.717987,499.594788 
	C453.111603,507.340088 455.008972,514.273376 460.198212,515.966431 
	C466.071899,517.882812 468.869354,516.711914 470.810883,511.524109 
	C461.622467,510.387573 461.220032,510.275177 459.945465,507.996216 
	C464.781250,507.996216 469.314636,507.996216 473.801636,507.996216 
	C474.243896,499.173859 470.990326,495.207153 462.818695,495.006012 
M277.858215,508.000000 
	C280.187561,507.998627 282.580292,508.314484 284.820374,507.866730 
	C286.001099,507.630676 287.960571,505.742432 287.778625,505.147430 
	C286.684357,501.568329 286.904724,496.568909 282.083771,495.783264 
	C278.795166,495.247345 274.586639,495.317657 271.959259,496.973328 
	C268.244995,499.313934 267.058350,503.956757 268.244720,508.425262 
	C270.401489,516.549072 277.316711,518.373108 284.142059,514.834167 
	C285.240540,514.264587 286.415649,511.726532 285.997040,510.810760 
	C285.246185,509.168182 283.941101,507.915497 281.584656,510.420776 
	C278.572968,513.622620 275.504089,512.080750 273.233612,508.000000 
	C274.768066,508.000000 275.882080,508.000000 277.858215,508.000000 
M437.127747,502.557648 
	C435.426025,496.163330 432.072449,493.976196 425.565369,495.016998 
	C421.125610,495.727142 417.904724,500.479462 418.001007,506.178040 
	C418.096680,511.842346 422.202911,516.306152 427.901337,516.940430 
	C431.169678,517.304138 433.736359,515.106995 434.518677,511.275696 
	C425.282104,510.711670 425.282104,510.711670 424.317017,508.000000 
	C426.550964,508.000000 428.699097,508.000000 430.847229,508.000000 
	C433.136780,508.000000 435.426331,508.000000 438.079498,508.000000 
	C437.917053,506.080475 437.794739,504.635284 437.127747,502.557648 
M327.996338,505.634705 
	C327.299377,496.732910 320.563080,492.289978 313.742950,496.035645 
	C308.465515,498.934052 308.723206,503.678894 309.016083,508.517120 
	C309.320038,513.538696 314.326782,517.628235 319.194946,516.932373 
	C323.980774,516.248291 325.708496,513.397644 323.766449,509.389679 
	C318.209625,513.459778 316.101624,513.198669 314.360382,508.000000 
	C317.259338,508.000000 320.095856,508.173492 322.897522,507.935944 
	C324.617706,507.790100 326.284546,507.015137 327.996338,505.634705 
M413.496979,497.132843 
	C409.914459,496.269379 406.331909,495.405914 402.015869,494.365662 
	C402.015869,492.677765 402.015869,489.576935 402.015869,486.246582 
	C400.218445,486.246582 398.828644,486.246582 397.234253,486.246582 
	C397.234253,496.155151 397.234253,505.883636 397.234253,515.734741 
	C398.864685,515.734741 400.250305,515.734741 402.000122,515.734741 
	C402.000122,512.190491 402.071564,508.891357 401.979889,505.596710 
	C401.889648,502.353455 402.700623,500.032898 406.538696,499.987488 
	C410.270996,499.943329 410.707703,502.760651 410.924805,505.320526 
	C411.215729,508.750885 410.996796,512.224487 410.996796,516.748657 
	C412.863922,515.700867 414.823151,515.098145 414.813171,514.529968 
	C414.715759,508.965302 414.290161,503.406342 413.496979,497.132843 
M297.754272,515.992981 
	C298.715057,515.865295 300.350464,516.016052 300.535248,515.568176 
	C303.256775,508.972321 305.785339,502.296906 308.395966,495.546661 
	C304.582825,494.390015 302.828003,495.125061 301.889771,498.479675 
	C301.150208,501.124115 299.446625,503.498962 297.670776,506.972351 
	C292.220032,494.560516 292.220032,494.560516 287.869720,495.969788 
	C288.591034,497.926880 289.175659,499.940308 290.055115,501.815430 
	C292.280518,506.560303 294.638336,511.243073 297.754272,515.992981 
z"/>
<path fill="#0080FF" opacity="1.000000" stroke="none" 
	d="
M161.995255,38.000885 
	C180.232452,20.391218 202.104340,10.429430 226.503708,7.260107 
	C259.058594,3.031429 289.241333,10.382118 315.390045,30.982323 
	C333.527435,45.271122 347.386566,62.945484 353.994446,85.385277 
	C359.434723,103.859978 358.644867,122.323921 350.936462,140.136993 
	C341.227203,162.573715 323.214813,174.389359 299.869141,178.949951 
	C296.027618,179.700409 292.035461,179.924698 288.109589,179.954636 
	C273.296295,180.067581 258.481598,180.000000 243.334366,180.000000 
	C243.334366,160.034698 243.334366,140.309738 243.334366,120.291451 
	C263.052917,120.291451 282.777313,120.291451 302.927917,120.291451 
	C302.927917,128.483261 302.927917,136.564041 302.927917,144.818329 
	C324.827606,135.429092 332.684814,115.523346 323.345795,92.897446 
	C318.496948,81.150040 311.562866,70.557892 302.249969,61.868896 
	C288.559662,49.095688 272.505768,41.365601 253.658310,38.834427 
	C232.287766,35.964405 212.898239,40.990780 195.363525,52.480419 
	C176.131943,65.081940 163.828506,83.204971 159.078110,105.822014 
	C152.041183,139.325516 162.426102,167.484512 187.659012,189.822525 
	C200.119034,200.853027 215.254028,207.094742 232.203644,209.151321 
	C257.263397,212.191940 278.888519,205.204407 298.171844,189.401062 
	C305.067108,183.750137 312.485443,185.179764 318.717865,190.432968 
	C324.311890,195.148102 324.857208,206.356766 319.847656,211.462112 
	C313.737183,217.689453 306.959717,223.259781 300.513062,229.160553 
	C295.142334,234.076462 289.820923,239.046463 284.498810,244.015167 
	C274.094910,253.728256 263.520538,263.269409 253.391174,273.261353 
	C248.568771,278.018311 236.218491,278.313965 231.465561,273.974670 
	C225.134918,268.195007 218.602936,262.633606 212.334717,256.788330 
	C200.219940,245.490982 188.227646,234.062256 176.187759,222.684616 
	C169.994385,216.831894 163.645889,211.132507 157.649185,205.084518 
	C140.692825,187.983063 130.833908,167.398010 126.889290,143.618622 
	C122.470032,116.978004 126.627892,91.936348 138.992355,68.114365 
	C144.847336,56.833893 152.550766,46.918915 161.995255,38.000885 
z"/>
<path fill="#041636" opacity="1.000000" stroke="none" 
	d="
M190.803543,339.000000 
	C192.760071,339.000000 194.241577,339.000000 196.462738,339.000000 
	C193.297577,348.093079 190.253159,356.664703 187.327164,365.276550 
	C176.527130,397.063416 165.703079,428.842438 155.054443,460.680054 
	C153.331146,465.832397 151.263275,468.902008 144.909210,468.173706 
	C138.167084,467.400879 131.266220,467.917603 124.437767,468.041138 
	C121.769501,468.089386 120.615799,467.367126 119.669159,464.524170 
	C115.004379,450.515015 109.913124,436.647552 104.925240,422.746979 
	C104.567093,421.748901 103.831985,420.886078 102.654686,418.939270 
	C99.906128,427.005066 97.451263,434.192688 95.007683,441.384125 
	C92.320663,449.292053 89.776405,457.253326 86.833168,465.064484 
	C86.340012,466.373260 84.162857,467.822510 82.719772,467.870056 
	C74.565102,468.138824 66.396713,467.961060 58.233677,468.023987 
	C55.841721,468.042419 54.734470,467.544830 53.806656,464.782959 
	C46.083012,441.791901 37.980751,418.928223 30.035076,396.011444 
	C23.776073,377.959320 17.571682,359.888214 11.369785,341.816376 
	C11.113148,341.068542 11.128887,340.227264 10.958003,339.000946 
	C21.301451,339.000946 31.434761,338.878662 41.556511,339.165039 
	C42.741405,339.198578 44.463406,341.296173 44.922760,342.755890 
	C51.384548,363.289764 57.660175,383.882202 64.003899,404.453339 
	C66.596901,412.861786 69.244820,421.253357 72.319687,431.099792 
	C74.485977,424.640656 76.259796,419.521301 77.919395,414.365173 
	C80.676895,405.798065 82.577965,396.848694 86.297592,388.728058 
	C89.974571,380.700500 88.169952,373.908173 85.243286,366.524292 
	C81.762505,357.742462 78.867996,348.728271 75.551041,339.337952 
	C85.496246,339.337952 94.879410,339.337952 104.396851,339.337952 
	C114.206825,369.166962 124.089325,399.216553 133.971832,429.266113 
	C134.505310,429.221771 135.038788,429.177399 135.572281,429.133026 
	C144.829559,399.177155 154.086838,369.221252 163.426132,339.000000 
	C172.365646,339.000000 181.347092,339.000000 190.803543,339.000000 
z"/>
<path fill="#041636" opacity="1.000000" stroke="none" 
	d="
M303.042694,439.113495 
	C298.981903,449.009766 291.953430,456.714935 282.970612,461.831085 
	C262.819672,473.308105 241.620636,473.237579 220.705750,464.055298 
	C206.237350,457.703186 197.485184,445.579254 192.529678,430.937317 
	C185.240494,409.400238 185.868362,387.784912 196.367950,367.603088 
	C206.500778,348.126190 223.174500,337.503265 245.714859,336.949005 
	C258.471130,336.635345 270.844269,337.662140 281.670929,345.221558 
	C295.315643,354.748535 302.910400,368.288696 305.864319,384.329071 
	C307.309967,392.179230 307.260437,400.298340 308.031616,408.281830 
	C308.399963,412.094696 306.802948,413.085052 303.158844,413.067963 
	C276.344910,412.942169 249.530136,413.000000 222.715622,413.000000 
	C220.898712,413.000000 219.081818,413.000000 217.231079,413.000000 
	C219.215408,427.897461 225.316605,439.751984 240.539398,443.666718 
	C259.808167,448.621826 273.750580,440.363586 283.350006,423.637939 
	C290.113831,428.374176 296.447418,432.809143 302.896881,437.872131 
	C303.022705,438.704590 303.032715,438.909058 303.042694,439.113495 
M255.095352,362.002045 
	C253.262375,362.001373 251.429306,362.013824 249.596451,361.997955 
	C232.227081,361.847809 220.824554,373.070160 218.564545,389.752930 
	C239.322891,389.752930 260.087524,389.752930 281.083984,389.752930 
	C280.679047,387.741669 280.501587,385.957245 279.954437,384.294495 
	C277.160645,375.804138 273.370544,368.052246 264.197510,364.696136 
	C261.499420,363.708954 258.732178,362.910797 255.095352,362.002045 
z"/>
<path fill="#041636" opacity="1.000000" stroke="none" 
	d="
M351.753479,364.256348 
	C344.881714,356.019714 338.263885,348.039703 330.772583,339.006439 
	C343.233795,339.006439 354.338318,338.452087 365.318634,339.375275 
	C368.261230,339.622681 371.047485,344.187225 373.518738,347.098267 
	C379.640686,354.309723 385.511475,361.733795 391.537872,369.027252 
	C395.077057,373.310638 398.720917,377.507507 402.579376,382.051453 
	C409.082916,374.298523 415.571472,366.611603 422.004944,358.878876 
	C427.222565,352.607605 432.330292,346.244110 437.615204,340.030731 
	C438.215179,339.325348 439.644379,339.049622 440.691986,339.042999 
	C451.670624,338.973877 462.649841,339.000336 474.806763,339.000336 
	C456.456909,361.042358 438.687500,382.387177 420.868561,403.791473 
	C438.668060,424.992767 456.372314,446.080627 474.768982,467.993225 
	C462.416962,467.993225 450.969971,468.580170 439.657745,467.604492 
	C436.607361,467.341400 433.749573,462.518738 431.177521,459.473022 
	C423.494385,450.375092 415.995789,441.121307 408.427612,431.926361 
	C406.777710,429.921814 405.138214,427.908722 402.949066,425.233795 
	C397.802917,431.352448 392.918610,437.195587 387.994843,443.005249 
	C381.437012,450.742889 374.880432,458.482269 368.229553,466.139404 
	C367.460419,467.024963 366.099426,467.905243 365.002380,467.918427 
	C354.081604,468.049652 343.158630,467.998047 330.873901,467.998047 
	C336.440155,461.194458 341.201691,455.318390 346.023560,449.492279 
	C355.812103,437.665253 365.621796,425.855682 375.449615,414.061279 
	C377.653900,411.415955 379.842133,408.735992 382.273315,406.307831 
	C384.137817,404.445648 384.472076,403.170471 382.566589,400.938293 
	C372.277100,388.884552 362.174500,376.671265 351.753479,364.256348 
z"/>
<path fill="#0080FF" opacity="1.000000" stroke="none" 
	d="
M387.733276,515.954041 
	C385.112610,515.060608 382.909790,514.132629 380.706970,513.204651 
	C380.530457,512.536865 380.353912,511.869080 380.177368,511.201294 
	C379.856995,511.969116 379.732544,512.953125 379.174652,513.458801 
	C378.084900,514.446350 376.739685,515.831482 375.525391,515.807068 
	C374.358459,515.783569 372.615845,514.412781 372.177979,513.241028 
	C370.169464,507.866150 368.529816,502.353455 366.757751,496.890228 
	C366.171814,496.965820 365.585907,497.041382 365.000000,497.116943 
	C365.000000,500.595398 365.000275,504.073853 364.999939,507.552307 
	C364.999634,510.881897 365.080872,514.214050 364.977264,517.540405 
	C364.848175,521.684692 362.231262,524.785583 358.719849,525.455994 
	C355.280853,526.112549 351.388672,524.992126 347.856049,524.049438 
	C347.163818,523.864746 347.206451,520.926331 346.958984,519.532898 
	C350.480347,520.066284 353.485260,520.750793 356.504852,520.823425 
	C357.295471,520.842407 358.131836,518.960999 358.947205,517.952393 
	C357.970245,517.468445 356.979950,516.543213 356.018555,516.572266 
	C349.944397,516.756409 346.350891,513.629456 346.028290,507.433319 
	C345.874481,504.479034 346.001831,501.510132 346.001831,498.137329 
	C345.101715,498.730194 344.612091,499.182465 344.034027,499.413879 
	C336.041779,502.613983 336.038086,502.606537 336.000763,511.441467 
	C335.995239,512.751465 336.000000,514.061462 336.000000,515.696777 
	C334.995972,515.814758 334.233337,515.953247 333.466888,515.979248 
	C332.826141,516.000977 332.180878,515.891052 331.273529,515.818298 
	C331.273529,508.968536 331.273529,502.215881 331.273529,495.486053 
	C337.754578,495.486053 344.174469,495.486053 351.000031,495.486053 
	C351.000031,498.633606 351.163147,501.947113 350.955597,505.237274 
	C350.733856,508.752594 352.282166,511.620575 355.463043,511.764496 
	C359.351868,511.940430 360.144531,508.556458 360.023438,505.114227 
	C359.912811,501.968231 360.000000,498.815277 360.000000,495.007141 
	C363.472748,495.007141 366.769623,494.786224 370.005524,495.133423 
	C371.061859,495.246765 372.371613,496.666504 372.845764,497.791931 
	C373.907898,500.313080 374.518158,503.024597 375.316162,505.670929 
	C380.635986,503.158844 376.446930,498.988708 377.183472,495.117859 
	C384.955200,494.869202 381.515808,503.395508 385.422943,505.693970 
	C390.070251,503.660828 386.188812,494.048157 395.650635,495.283997 
	C393.043671,502.457306 390.597382,509.188416 387.733276,515.954041 
z"/>
<path fill="#041636" opacity="1.000000" stroke="none" 
	d="
M345.000000,402.997498 
	C344.884705,411.392303 340.768066,415.068787 332.043945,415.000000 
	C325.098938,414.945251 321.000336,410.305908 321.000031,402.499084 
	C320.999725,395.529999 325.296936,391.053619 332.038849,391.000031 
	C340.758911,390.930695 344.883301,394.611053 345.000000,402.997498 
z"/>
<path fill="#0080FF" opacity="1.000000" stroke="none" 
	d="
M463.234924,495.003387 
	C470.990326,495.207153 474.243896,499.173859 473.801636,507.996216 
	C469.314636,507.996216 464.781250,507.996216 459.945465,507.996216 
	C461.220032,510.275177 461.622467,510.387573 470.810883,511.524109 
	C468.869354,516.711914 466.071899,517.882812 460.198212,515.966431 
	C455.008972,514.273376 453.111603,507.340088 455.717987,499.594788 
	C445.374939,500.626587 445.108612,500.927429 444.999908,511.702057 
	C444.959229,515.734985 444.959259,515.734985 441.221558,515.510803 
	C441.221558,508.752289 441.221558,501.984863 441.221558,494.363983 
	C445.881989,497.513947 451.720276,491.916870 455.732117,497.611969 
	C457.956604,496.793945 460.387634,495.899994 463.234924,495.003387 
z"/>
<path fill="#0080FF" opacity="1.000000" stroke="none" 
	d="
M277.427155,508.000000 
	C275.882080,508.000000 274.768066,508.000000 273.233612,508.000000 
	C275.504089,512.080750 278.572968,513.622620 281.584656,510.420776 
	C283.941101,507.915497 285.246185,509.168182 285.997040,510.810760 
	C286.415649,511.726532 285.240540,514.264587 284.142059,514.834167 
	C277.316711,518.373108 270.401489,516.549072 268.244720,508.425262 
	C267.058350,503.956757 268.244995,499.313934 271.959259,496.973328 
	C274.586639,495.317657 278.795166,495.247345 282.083771,495.783264 
	C286.904724,496.568909 286.684357,501.568329 287.778625,505.147430 
	C287.960571,505.742432 286.001099,507.630676 284.820374,507.866730 
	C282.580292,508.314484 280.187561,507.998627 277.427155,508.000000 
z"/>
<path fill="#0080FF" opacity="1.000000" stroke="none" 
	d="
M437.400085,502.873840 
	C437.794739,504.635284 437.917053,506.080475 438.079498,508.000000 
	C435.426331,508.000000 433.136780,508.000000 430.847229,508.000000 
	C428.699097,508.000000 426.550964,508.000000 424.317017,508.000000 
	C425.282104,510.711670 425.282104,510.711670 434.518677,511.275696 
	C433.736359,515.106995 431.169678,517.304138 427.901337,516.940430 
	C422.202911,516.306152 418.096680,511.842346 418.001007,506.178040 
	C417.904724,500.479462 421.125610,495.727142 425.565369,495.016998 
	C432.072449,493.976196 435.426025,496.163330 437.400085,502.873840 
z"/>
<path fill="#0080FF" opacity="1.000000" stroke="none" 
	d="
M327.985840,506.078705 
	C326.284546,507.015137 324.617706,507.790100 322.897522,507.935944 
	C320.095856,508.173492 317.259338,508.000000 314.360382,508.000000 
	C316.101624,513.198669 318.209625,513.459778 323.766449,509.389679 
	C325.708496,513.397644 323.980774,516.248291 319.194946,516.932373 
	C314.326782,517.628235 309.320038,513.538696 309.016083,508.517120 
	C308.723206,503.678894 308.465515,498.934052 313.742950,496.035645 
	C320.563080,492.289978 327.299377,496.732910 327.985840,506.078705 
z"/>
<path fill="#0080FF" opacity="1.000000" stroke="none" 
	d="
M413.727417,497.489319 
	C414.290161,503.406342 414.715759,508.965302 414.813171,514.529968 
	C414.823151,515.098145 412.863922,515.700867 410.996796,516.748657 
	C410.996796,512.224487 411.215729,508.750885 410.924805,505.320526 
	C410.707703,502.760651 410.270996,499.943329 406.538696,499.987488 
	C402.700623,500.032898 401.889648,502.353455 401.979889,505.596710 
	C402.071564,508.891357 402.000122,512.190491 402.000122,515.734741 
	C400.250305,515.734741 398.864685,515.734741 397.234253,515.734741 
	C397.234253,505.883636 397.234253,496.155151 397.234253,486.246582 
	C398.828644,486.246582 400.218445,486.246582 402.015869,486.246582 
	C402.015869,489.576935 402.015869,492.677765 402.015869,494.365662 
	C406.331909,495.405914 409.914459,496.269379 413.727417,497.489319 
z"/>
<path fill="#0080FF" opacity="1.000000" stroke="none" 
	d="
M297.348694,515.971863 
	C294.638336,511.243073 292.280518,506.560303 290.055115,501.815430 
	C289.175659,499.940308 288.591034,497.926880 287.869720,495.969788 
	C292.220032,494.560516 292.220032,494.560516 297.670776,506.972351 
	C299.446625,503.498962 301.150208,501.124115 301.889771,498.479675 
	C302.828003,495.125061 304.582825,494.390015 308.395966,495.546661 
	C305.785339,502.296906 303.256775,508.972321 300.535248,515.568176 
	C300.350464,516.016052 298.715057,515.865295 297.348694,515.971863 
z"/>
<path fill="#041636" opacity="1.000000" stroke="none" 
	d="
M303.307770,439.021576 
	C303.032715,438.909058 303.022705,438.704590 303.027618,438.193237 
	C303.219299,438.234131 303.396057,438.581879 303.307770,439.021576 
z"/>
<path fill="#FFFFFF" opacity="1.000000" stroke="none" 
	d="
M255.545990,362.014038 
	C258.732178,362.910797 261.499420,363.708954 264.197510,364.696136 
	C273.370544,368.052246 277.160645,375.804138 279.954437,384.294495 
	C280.501587,385.957245 280.679047,387.741669 281.083984,389.752930 
	C260.087524,389.752930 239.322891,389.752930 218.564545,389.752930 
	C220.824554,373.070160 232.227081,361.847809 249.596451,361.997955 
	C251.429306,362.013824 253.262375,362.001373 255.545990,362.014038 
z"/>
</svg>