<svg id="Capa_1" data-name="Capa 1" xmlns="http://www.w3.org/2000/svg" viewBox="0 0 156.25 64.59"><defs><style>.cls-1{fill:#027eff;}.cls-2{fill:none;stroke:#027eff;stroke-miterlimit:10;stroke-width:0.15px;}.cls-3{fill:#050f27;}</style></defs><title>logo</title><path class="cls-1" d="M93.08,56.84H88.23a2.38,2.38,0,0,0,.6,1.45,1.82,1.82,0,0,0,1.39.53,2,2,0,0,0,1-.23,2.74,2.74,0,0,0,.78-.83l.8.55a2.79,2.79,0,0,1-2.61,1.5A2.84,2.84,0,0,1,88,58.88a3.87,3.87,0,0,1,0-4.8,2.8,2.8,0,0,1,2.22-.95,2.63,2.63,0,0,1,2.13.93,3.55,3.55,0,0,1,.79,2.41,3.12,3.12,0,0,1,0,.37m-4.2-2.23A2.37,2.37,0,0,0,88.25,56h3.82a2.21,2.21,0,0,0-.57-1.36,1.71,1.71,0,0,0-1.29-.49,1.79,1.79,0,0,0-1.33.5"/><path class="cls-2" d="M93.08,56.84H88.23a2.38,2.38,0,0,0,.6,1.45,1.82,1.82,0,0,0,1.39.53,2,2,0,0,0,1-.23,2.74,2.74,0,0,0,.78-.83l.8.55a2.79,2.79,0,0,1-2.61,1.5A2.84,2.84,0,0,1,88,58.88a3.87,3.87,0,0,1,0-4.8,2.8,2.8,0,0,1,2.22-.95,2.63,2.63,0,0,1,2.13.93,3.55,3.55,0,0,1,.79,2.41A3.12,3.12,0,0,1,93.08,56.84Zm-4.2-2.23A2.37,2.37,0,0,0,88.25,56h3.82a2.21,2.21,0,0,0-.57-1.36,1.71,1.71,0,0,0-1.29-.49A1.79,1.79,0,0,0,88.88,54.61Z"/><polygon class="cls-1" points="99.95 53.26 97.38 59.68 96.28 59.68 93.72 53.26 94.92 53.26 96.84 58.35 98.74 53.26 99.95 53.26"/><polygon class="cls-2" points="99.95 53.26 97.38 59.68 96.28 59.68 93.72 53.26 94.92 53.26 96.84 58.35 98.74 53.26 99.95 53.26"/><path class="cls-1" d="M106.53,56.84h-4.86a2.38,2.38,0,0,0,.6,1.45,1.84,1.84,0,0,0,1.39.53,2,2,0,0,0,1-.23,2.52,2.52,0,0,0,.78-.83l.8.55a2.78,2.78,0,0,1-2.61,1.5,2.85,2.85,0,0,1-2.23-.93,3.87,3.87,0,0,1,0-4.8,2.83,2.83,0,0,1,2.22-.95,2.67,2.67,0,0,1,2.14.93,3.6,3.6,0,0,1,.78,2.41,3.66,3.66,0,0,1,0,.37m-4.2-2.23A2.25,2.25,0,0,0,101.7,56h3.81a2.21,2.21,0,0,0-.57-1.36,1.71,1.71,0,0,0-1.29-.49,1.75,1.75,0,0,0-1.32.5"/><path class="cls-2" d="M106.53,56.84h-4.86a2.38,2.38,0,0,0,.6,1.45,1.84,1.84,0,0,0,1.39.53,2,2,0,0,0,1-.23,2.52,2.52,0,0,0,.78-.83l.8.55a2.78,2.78,0,0,1-2.61,1.5,2.85,2.85,0,0,1-2.23-.93,3.87,3.87,0,0,1,0-4.8,2.83,2.83,0,0,1,2.22-.95,2.67,2.67,0,0,1,2.14.93,3.6,3.6,0,0,1,.78,2.41A3.66,3.66,0,0,1,106.53,56.84Zm-4.2-2.23A2.25,2.25,0,0,0,101.7,56h3.81a2.21,2.21,0,0,0-.57-1.36,1.71,1.71,0,0,0-1.29-.49A1.75,1.75,0,0,0,102.33,54.61Z"/><path class="cls-1" d="M112.41,53.52l-.55.82a1.81,1.81,0,0,0-.9-.21,1.75,1.75,0,0,0-1.27.56,1.93,1.93,0,0,0-.54,1.4v3.59H108V53.26h1l0,1a2.35,2.35,0,0,1,3.3-.72"/><path class="cls-2" d="M112.41,53.52l-.55.82a1.81,1.81,0,0,0-.9-.21,1.75,1.75,0,0,0-1.27.56,1.93,1.93,0,0,0-.54,1.4v3.59H108V53.26h1l0,1a2.35,2.35,0,0,1,3.3-.72Z"/><path class="cls-1" d="M118.85,59.85a3.23,3.23,0,0,1-.8,2.26,3,3,0,0,1-2.3.86,4,4,0,0,1-2.23-.61V61.12a3.41,3.41,0,0,0,2.32.84,1.76,1.76,0,0,0,1.4-.55,2.36,2.36,0,0,0,.47-1.56v-1a2.48,2.48,0,0,1-2,1,2.45,2.45,0,0,1-1.8-.74,2.53,2.53,0,0,1-.73-1.82v-4h1.13v3.88a1.6,1.6,0,0,0,.49,1.18,1.64,1.64,0,0,0,1.19.48,1.71,1.71,0,0,0,1.23-.48,1.61,1.61,0,0,0,.5-1.18V53.26h1.14Z"/><path class="cls-2" d="M118.85,59.85a3.23,3.23,0,0,1-.8,2.26,3,3,0,0,1-2.3.86,4,4,0,0,1-2.23-.61V61.12a3.41,3.41,0,0,0,2.32.84,1.76,1.76,0,0,0,1.4-.55,2.36,2.36,0,0,0,.47-1.56v-1a2.48,2.48,0,0,1-2,1,2.45,2.45,0,0,1-1.8-.74,2.53,2.53,0,0,1-.73-1.82v-4h1.13v3.88a1.6,1.6,0,0,0,.49,1.18,1.64,1.64,0,0,0,1.19.48,1.71,1.71,0,0,0,1.23-.48,1.61,1.61,0,0,0,.5-1.18V53.26h1.14Z"/><polygon class="cls-1" points="128.91 53.26 126.72 59.68 125.47 59.68 124.4 56.63 123.38 59.68 122.14 59.68 119.93 53.26 121.22 53.26 122.82 58.32 123.88 55.15 123.22 53.26 124.34 53.26 126.02 58.35 127.65 53.26 128.91 53.26"/><polygon class="cls-2" points="128.91 53.26 126.72 59.68 125.47 59.68 124.4 56.63 123.38 59.68 122.14 59.68 119.93 53.26 121.22 53.26 122.82 58.32 123.88 55.15 123.22 53.26 124.34 53.26 126.02 58.35 127.65 53.26 128.91 53.26"/><path class="cls-1" d="M135,53.84a2.41,2.41,0,0,1,.71,1.78v4.06h-1.14V55.75a1.52,1.52,0,0,0-.48-1.15,1.62,1.62,0,0,0-1.19-.47,1.74,1.74,0,0,0-1.23.49,1.58,1.58,0,0,0-.51,1.18v3.88H130V50.05h1.13v4a2.56,2.56,0,0,1,2-.94,2.45,2.45,0,0,1,1.79.71"/><path class="cls-2" d="M135,53.84a2.41,2.41,0,0,1,.71,1.78v4.06h-1.14V55.75a1.52,1.52,0,0,0-.48-1.15,1.62,1.62,0,0,0-1.19-.47,1.74,1.74,0,0,0-1.23.49,1.58,1.58,0,0,0-.51,1.18v3.88H130V50.05h1.13v4a2.56,2.56,0,0,1,2-.94A2.45,2.45,0,0,1,135,53.84Z"/><path class="cls-1" d="M143.06,56.84H138.2a2.38,2.38,0,0,0,.61,1.45,1.81,1.81,0,0,0,1.39.53,2,2,0,0,0,1-.23,2.74,2.74,0,0,0,.78-.83l.8.55a2.79,2.79,0,0,1-2.61,1.5,2.83,2.83,0,0,1-2.23-.93,3.87,3.87,0,0,1,0-4.8,2.8,2.8,0,0,1,2.22-.95,2.63,2.63,0,0,1,2.13.93,3.6,3.6,0,0,1,.78,2.41,3.66,3.66,0,0,1,0,.37m-4.2-2.23a2.37,2.37,0,0,0-.63,1.35h3.82a2.21,2.21,0,0,0-.57-1.36,2,2,0,0,0-2.62,0"/><path class="cls-2" d="M143.06,56.84H138.2a2.38,2.38,0,0,0,.61,1.45,1.81,1.81,0,0,0,1.39.53,2,2,0,0,0,1-.23,2.74,2.74,0,0,0,.78-.83l.8.55a2.79,2.79,0,0,1-2.61,1.5,2.83,2.83,0,0,1-2.23-.93,3.87,3.87,0,0,1,0-4.8,2.8,2.8,0,0,1,2.22-.95,2.63,2.63,0,0,1,2.13.93,3.6,3.6,0,0,1,.78,2.41A3.66,3.66,0,0,1,143.06,56.84Zm-4.2-2.23a2.37,2.37,0,0,0-.63,1.35h3.82a2.21,2.21,0,0,0-.57-1.36,2,2,0,0,0-2.62,0Z"/><path class="cls-1" d="M149,53.52l-.55.82a1.81,1.81,0,0,0-.9-.21,1.73,1.73,0,0,0-1.27.56,1.94,1.94,0,0,0-.55,1.4v3.59h-1.13V53.26h1l.06,1a2.25,2.25,0,0,1,1.9-1.11,2.28,2.28,0,0,1,1.4.39"/><path class="cls-2" d="M149,53.52l-.55.82a1.81,1.81,0,0,0-.9-.21,1.73,1.73,0,0,0-1.27.56,1.94,1.94,0,0,0-.55,1.4v3.59h-1.13V53.26h1l.06,1a2.25,2.25,0,0,1,1.9-1.11A2.28,2.28,0,0,1,149,53.52Z"/><path class="cls-1" d="M155.09,56.84h-4.86a2.38,2.38,0,0,0,.61,1.45,1.8,1.8,0,0,0,1.38.53,2,2,0,0,0,1-.23,2.64,2.64,0,0,0,.79-.83l.8.55a2.79,2.79,0,0,1-2.61,1.5,2.83,2.83,0,0,1-2.23-.93,3.44,3.44,0,0,1-.83-2.4,3.52,3.52,0,0,1,.83-2.4,2.84,2.84,0,0,1,2.23-.95,2.63,2.63,0,0,1,2.13.93,3.6,3.6,0,0,1,.78,2.41,3.66,3.66,0,0,1,0,.37m-4.2-2.23a2.37,2.37,0,0,0-.63,1.35h3.82a2.16,2.16,0,0,0-.58-1.36,1.71,1.71,0,0,0-1.29-.49,1.75,1.75,0,0,0-1.32.5"/><path class="cls-2" d="M155.09,56.84h-4.86a2.38,2.38,0,0,0,.61,1.45,1.8,1.8,0,0,0,1.38.53,2,2,0,0,0,1-.23,2.64,2.64,0,0,0,.79-.83l.8.55a2.79,2.79,0,0,1-2.61,1.5,2.83,2.83,0,0,1-2.23-.93,3.44,3.44,0,0,1-.83-2.4,3.52,3.52,0,0,1,.83-2.4,2.84,2.84,0,0,1,2.23-.95,2.63,2.63,0,0,1,2.13.93,3.6,3.6,0,0,1,.78,2.41A3.66,3.66,0,0,1,155.09,56.84Zm-4.2-2.23a2.37,2.37,0,0,0-.63,1.35h3.82a2.16,2.16,0,0,0-.58-1.36,1.71,1.71,0,0,0-1.29-.49A1.75,1.75,0,0,0,150.89,54.61Z"/><polygon class="cls-3" points="62.67 1.18 48.15 43.65 37.95 43.65 31.84 26.41 26.06 43.65 15.96 43.65 1.35 1.18 12.05 1.18 21.65 32.35 27.59 14.18 23 1.18 32.18 1.18 42.45 32.52 52.14 1.18 62.67 1.18"/><path class="cls-3" d="M99.74,25.39H69.68q1.27,10.95,11.46,11a11.33,11.33,0,0,0,6-1.44A16.9,16.9,0,0,0,92,29.47l6.54,4.58Q93,44.51,80.8,44.5q-9.42,0-14.9-6.12T60.42,22.5q0-9.76,5.52-16T80.8.33q9,0,14.06,6.16t5,16.27a14.09,14.09,0,0,1-.17,2.63M69.93,18.17H91.42Q90.07,8.4,81,8.4q-9.25,0-11,9.77"/><polygon class="cls-3" points="137.41 22.5 155.16 43.65 143.7 43.65 131.72 29.29 119.66 43.65 108.2 43.65 125.95 22.41 108.2 1.18 119.49 1.18 131.64 15.62 143.78 1.18 155.16 1.18 137.41 22.5"/><path class="cls-3" d="M112.44,22.22a3.94,3.94,0,1,1-3.93-3.93,3.93,3.93,0,0,1,3.93,3.93"/></svg>