<svg version="1.1" id="Layer_1" xmlns="http://www.w3.org/2000/svg" xmlns:xlink="http://www.w3.org/1999/xlink" x="0px" y="0px"
	 width="100%" viewBox="0 0 544 539" enable-background="new 0 0 544 539" xml:space="preserve">
<path fill="#027EFF" opacity="1.000000" stroke="none" 
	d="
M358.000000,540.000000 
	C240.193726,540.000000 122.887451,539.982056 5.581270,540.084839 
	C1.985160,540.087952 0.891183,539.518250 0.893910,535.583191 
	C1.016434,358.790710 1.015510,181.998169 0.894272,5.205715 
	C0.891717,1.480901 1.805051,0.910940 5.292445,0.912874 
	C183.751221,1.011875 362.210052,1.010221 540.668823,0.922588 
	C544.044983,0.920930 545.116638,1.331880 545.113770,5.166997 
	C544.982788,182.126068 544.986206,359.085266 545.099854,536.044373 
	C545.102051,539.555969 544.286499,540.096985 540.957214,540.090210 
	C480.138336,539.966675 419.319122,540.000000 358.000000,540.000000 
z"/>
<path fill="#FDFDFF" opacity="1.000000" stroke="none" 
	d="
M333.976288,202.032501 
	C325.414764,206.152847 316.787567,208.163071 307.614502,208.037918 
	C297.120087,207.894760 286.620453,207.897446 276.126953,208.070755 
	C273.053406,208.121521 272.156952,207.185272 272.190765,204.128708 
	C272.340027,190.635025 272.321533,177.138184 272.201874,163.643906 
	C272.177124,160.850662 272.970856,159.908005 275.853760,159.935898 
	C289.681030,160.069687 303.510651,160.049026 317.338501,159.949234 
	C319.910034,159.930695 320.874725,160.685242 320.791901,163.337128 
	C320.625793,168.656906 320.742554,173.985519 320.742554,179.346741 
	C333.331085,177.132629 343.136658,161.274185 340.672241,147.422256 
	C336.027893,121.317482 312.183350,98.499512 284.598297,93.762421 
	C248.404266,87.546959 214.025375,109.586876 204.708588,144.978851 
	C195.438797,180.192307 214.340637,216.695969 248.687546,228.505066 
	C273.103760,236.899811 295.898102,232.994125 316.312195,216.809387 
	C321.726959,212.516464 327.135132,211.983093 331.885925,215.318787 
	C336.200806,218.348404 337.970978,223.999695 336.066681,229.054581 
	C335.610931,230.264328 334.893555,231.435379 334.069550,232.437653 
	C319.527100,250.126282 302.374023,265.217407 285.571045,280.618103 
	C277.290405,288.207764 268.477264,288.091827 259.250000,281.082672 
	C249.284775,273.512939 240.871841,264.193939 231.721863,255.704468 
	C222.450577,247.102448 213.095245,238.542114 204.418991,229.356842 
	C178.414444,201.826767 170.341888,169.303452 181.801407,133.406021 
	C193.224518,97.622612 218.685394,75.946884 255.701050,68.979858 
	C307.746216,59.184017 359.688446,95.557762 366.010345,146.940338 
	C368.665314,168.518921 358.150635,185.457809 340.748535,198.049515 
	C338.734680,199.506683 336.469574,200.616608 333.976288,202.032501 
z"/>
<path fill="#051029" opacity="1.000000" stroke="none" 
	d="
M85.659409,341.143127 
	C84.480888,338.596802 85.188171,337.698242 87.534180,337.712646 
	C94.364006,337.754578 101.197845,337.854431 108.022804,337.666321 
	C111.244644,337.577545 111.290001,339.954193 111.882919,341.870270 
	C118.320114,362.672485 124.697136,383.493317 131.100616,404.306000 
	C131.818924,406.640625 132.599152,408.956177 133.377258,411.362823 
	C135.476562,410.580505 135.349182,408.824432 135.775833,407.546844 
	C139.619598,396.037018 143.284744,384.467194 147.179413,372.975006 
	C148.038376,370.440460 148.013504,368.254608 147.093475,365.761414 
	C144.158646,357.808289 141.541840,349.737305 138.577194,341.795837 
	C137.427826,338.717041 137.922272,337.539581 141.359741,337.680756 
	C147.334213,337.926086 154.519958,335.958984 158.950562,338.637207 
	C163.155365,341.178925 163.269012,348.917664 165.082520,354.402710 
	C171.444458,373.644714 177.743454,392.907532 184.299545,412.872528 
	C186.834641,408.394073 187.573593,404.035034 188.867691,399.919342 
	C194.950897,380.572296 200.967209,361.203033 206.787857,341.775879 
	C207.727051,338.641205 209.073792,337.499298 212.307175,337.647308 
	C217.626862,337.890839 222.977448,337.929718 228.293060,337.645233 
	C232.633209,337.412964 233.796082,338.365417 232.218719,342.873962 
	C223.105865,368.920959 214.256195,395.059998 205.321686,421.169373 
	C203.545044,426.361237 201.604630,431.507050 200.088654,436.774506 
	C199.179337,439.933960 197.884293,441.439850 194.273453,441.198303 
	C188.800507,440.832214 183.274490,440.898560 177.791519,441.180206 
	C174.566849,441.345825 173.106506,440.210541 172.085556,437.196381 
	C168.298691,426.016754 164.252060,414.925079 160.291656,403.804413 
	C159.910995,402.735474 159.876511,401.460480 158.319504,400.656799 
	C154.240982,412.765869 150.063309,424.779327 146.202728,436.893860 
	C145.183945,440.090698 143.860596,441.410736 140.346893,441.195312 
	C134.704041,440.849426 129.020828,440.981293 123.362129,441.154785 
	C120.733421,441.235413 119.631454,440.250153 118.791267,437.781891 
	C107.863213,405.678070 96.814438,373.615295 85.659409,341.143127 
z"/>
<path fill="#05102A" opacity="1.000000" stroke="none" 
	d="
M308.485382,346.505310 
	C321.790894,359.521667 324.770905,375.726990 324.624664,393.040405 
	C324.593292,396.751526 322.320129,396.717285 319.623962,396.711090 
	C298.627777,396.662750 277.631378,396.680450 256.635071,396.687653 
	C250.690857,396.689697 250.697037,396.703278 251.987213,402.320343 
	C254.387527,412.770538 260.171692,420.233978 271.037354,422.426270 
	C282.714996,424.782440 293.199310,422.830811 300.971649,412.618774 
	C305.541595,406.614349 305.686523,406.724762 311.978577,411.134125 
	C312.387634,411.420807 312.798859,411.704346 313.208710,411.989899 
	C322.471649,418.444031 322.549744,418.511383 314.970734,427.306427 
	C301.593750,442.829590 284.137512,445.560547 265.335266,441.831024 
	C247.530106,438.299286 236.180161,426.588562 231.238617,409.550934 
	C225.847519,390.963287 226.977127,372.683685 237.742874,355.765381 
	C254.028717,330.172241 293.046539,330.876251 308.485382,346.505310 
z"/>
<path fill="#051029" opacity="1.000000" stroke="none" 
	d="
M431.078583,338.246460 
	C440.168701,337.986786 448.929260,337.986786 457.739746,337.986786 
	C457.966705,340.214355 456.338440,341.135193 455.349121,342.330078 
	C443.349457,356.823273 431.416565,371.375153 419.173370,385.660675 
	C416.561127,388.708649 416.567688,390.437592 419.117096,393.416595 
	C432.314362,408.837524 445.285706,424.451813 459.263275,441.103607 
	C452.852539,441.103607 447.434265,440.548737 442.176788,441.231720 
	C433.984863,442.295837 428.597626,439.330750 423.855865,432.645142 
	C418.094849,424.522491 411.116028,417.271606 404.838959,409.502258 
	C402.773010,406.945129 401.580750,406.613403 399.309509,409.417908 
	C391.556305,418.991272 383.452759,428.280365 375.654633,437.818329 
	C373.676422,440.237976 371.639557,441.280487 368.470306,441.179749 
	C360.992279,440.942017 353.501617,441.103485 346.063446,441.103485 
	C345.472443,439.192993 346.910736,438.486237 347.687469,437.553619 
	C359.834900,422.967621 371.911987,408.320099 384.282135,393.924622 
	C387.207245,390.520569 387.424103,388.465454 384.349060,384.914032 
	C372.144409,370.818573 360.316589,356.396484 348.386444,342.064392 
	C347.486084,340.982727 346.084229,340.114777 346.190796,337.744690 
	C354.465149,337.744690 362.709106,337.760284 370.952942,337.733582 
	C372.974304,337.727020 373.756439,339.327026 374.792664,340.554199 
	C382.634491,349.840729 390.652710,358.990326 398.164825,368.537537 
	C401.325195,372.554108 402.907562,371.764282 405.694092,368.333862 
	C413.879822,358.256531 422.375000,348.430573 431.078583,338.246460 
z"/>
<path fill="#05112A" opacity="1.000000" stroke="none" 
	d="
M354.586670,392.148193 
	C350.675873,398.494598 344.720032,400.226593 339.895905,396.746857 
	C335.340912,393.461212 334.494904,386.985260 338.188904,382.707642 
	C341.278595,379.129761 345.228638,378.507568 349.482574,380.167480 
	C353.677673,381.804474 355.403076,385.846527 354.586670,392.148193 
z"/>
<path fill="#E6EEFF" opacity="1.000000" stroke="none" 
	d="
M388.185425,473.813110 
	C389.482727,471.395782 390.463806,468.758179 391.406586,466.106934 
	C391.923950,464.652100 392.839935,463.750336 394.402832,464.353638 
	C396.099365,465.008514 395.080109,466.408173 394.797607,467.343323 
	C393.837921,470.520020 392.732666,473.656891 391.567841,476.765778 
	C390.973572,478.351959 391.037628,480.567322 388.335144,480.454163 
	C385.946960,480.354126 386.149231,478.326080 385.469177,476.936218 
	C385.179840,476.344910 384.902710,475.747620 384.636414,475.187531 
	C382.349579,476.327850 383.884949,480.851349 380.170593,480.349670 
	C376.649628,479.874084 377.573792,476.189148 376.449249,474.009308 
	C375.323059,471.826263 374.749146,469.347870 374.032654,466.968994 
	C373.742706,466.006256 372.711884,464.677429 374.719208,464.266388 
	C376.061127,463.991608 376.984680,464.567169 377.412811,465.863007 
	C378.344452,468.683044 379.253540,471.510529 380.304962,474.744324 
	C382.129761,472.024933 382.816772,469.563110 381.988037,466.746033 
	C381.725037,465.851898 381.156982,464.701660 382.634247,464.329865 
	C384.054901,463.972351 384.686737,464.861664 385.114075,466.124115 
	C385.963409,468.633362 386.933228,471.101807 388.185425,473.813110 
z"/>
<path fill="#F0F5FF" opacity="1.000000" stroke="none" 
	d="
M371.031158,479.660797 
	C370.496124,487.020660 366.136658,490.078156 359.943756,487.987335 
	C358.302979,487.433350 357.056519,486.577698 357.741425,484.815521 
	C358.512787,482.830902 359.614624,484.752136 360.529114,484.951477 
	C365.217041,485.973541 366.578735,485.133514 367.791046,480.238770 
	C366.278717,479.172333 365.135193,480.880524 363.715912,480.811646 
	C359.895325,480.626404 357.266144,479.148651 357.011993,475.039429 
	C356.838104,472.228027 356.957458,469.396851 356.991791,466.575073 
	C357.003448,465.618073 356.902069,464.470001 358.303680,464.341858 
	C360.100922,464.177582 359.990143,465.535370 360.012299,466.678162 
	C360.057312,469.001556 359.985382,471.328156 360.067230,473.649719 
	C360.149475,475.980530 361.508972,477.492462 363.749908,477.566925 
	C365.975403,477.640869 367.496704,476.181915 367.838165,473.958984 
	C368.087799,472.333862 367.777679,470.624054 368.014374,468.995209 
	C368.246216,467.399933 366.864105,464.618408 369.393738,464.492554 
	C372.258026,464.350067 370.860260,467.240356 370.959381,468.750824 
	C371.187195,472.222168 371.031494,475.718719 371.031158,479.660797 
z"/>
<path fill="#E5EDFF" opacity="1.000000" stroke="none" 
	d="
M445.188019,467.399597 
	C451.629456,462.261993 457.439056,463.265076 459.060638,469.343750 
	C459.881287,472.420197 459.423523,474.119904 455.667694,473.885742 
	C453.247986,473.734863 450.726807,473.377350 448.099792,474.359375 
	C449.682373,478.121918 452.141785,478.569794 455.084381,476.340240 
	C456.255341,475.453033 457.132019,475.156128 457.992218,476.255005 
	C459.012360,477.558197 457.828217,478.429565 456.949371,479.113617 
	C454.352722,481.134644 451.493011,481.430481 448.527496,479.996338 
	C445.257568,478.414917 444.270966,475.452332 444.255615,472.149078 
	C444.248871,470.699036 444.877350,469.246063 445.188019,467.399597 
z"/>
<path fill="#E4ECFF" opacity="1.000000" stroke="none" 
	d="
M301.174438,473.827454 
	C299.607574,473.977448 298.294281,473.832825 297.405396,474.378937 
	C296.800781,474.750397 297.436920,475.953888 298.065826,476.490784 
	C299.245972,477.498138 300.529541,477.800873 302.185272,477.414185 
	C303.777161,477.042358 304.733582,474.216309 306.876953,476.122925 
	C307.423798,476.609406 307.469025,477.289886 307.044617,477.903259 
	C305.725250,479.809967 303.834412,480.691040 301.569977,480.808228 
	C298.070190,480.989410 295.401154,479.606476 294.029480,476.324097 
	C292.419250,472.470917 292.812317,468.751068 295.917358,465.815552 
	C298.455627,463.415894 301.614532,463.246307 304.667755,464.843170 
	C307.668030,466.412323 309.070465,469.499054 308.176514,472.362762 
	C307.242828,475.353760 303.837952,473.246490 301.174438,473.827454 
z"/>
<path fill="#E6EEFF" opacity="1.000000" stroke="none" 
	d="
M340.074341,477.157257 
	C337.240387,481.439941 333.423096,481.919189 329.607697,479.624481 
	C325.634644,477.234894 325.268982,473.125031 326.552216,469.043549 
	C327.756195,465.214172 330.719177,463.677185 334.673615,463.986420 
	C337.210938,464.184845 338.961823,465.476471 340.131256,467.716278 
	C342.348450,471.962830 341.347656,473.755157 336.655304,473.816193 
	C335.661102,473.829132 334.651428,473.710480 333.676086,473.846985 
	C332.470337,474.015686 330.906830,473.138245 330.172485,474.734436 
	C329.992157,475.126404 330.400818,476.048553 330.815430,476.405121 
	C331.938263,477.370697 333.075165,477.990692 334.838287,477.510986 
	C336.495178,477.060211 337.945496,473.437256 340.074341,477.157257 
z"/>
<path fill="#E7EEFF" opacity="1.000000" stroke="none" 
	d="
M427.054962,479.638916 
	C423.287964,481.425903 419.932495,481.435944 417.207764,478.479218 
	C414.443787,475.479828 414.359192,471.878754 415.865601,468.277924 
	C417.157837,465.189117 419.694702,463.905273 423.008453,463.950989 
	C425.978973,463.991974 428.016479,465.367035 429.284485,467.999542 
	C431.233673,472.046143 430.232941,473.740540 425.836060,473.813690 
	C425.008453,473.827454 424.171448,473.738678 423.354675,473.833801 
	C421.954681,473.996857 420.292572,473.196472 419.221039,474.559998 
	C418.596161,475.355164 419.405975,476.083344 420.013458,476.635925 
	C421.589081,478.069061 423.253418,477.938812 425.004639,476.926056 
	C425.926361,476.392975 426.567596,474.853271 427.933197,475.699768 
	C430.532532,477.311005 428.323242,478.314392 427.054962,479.638916 
z"/>
<path fill="#F8FAFF" opacity="1.000000" stroke="none" 
	d="
M403.406677,467.391174 
	C399.486328,470.233521 401.587250,474.059418 401.016052,477.327362 
	C400.811676,478.496582 401.596771,480.339630 399.434418,480.261414 
	C397.315094,480.184723 398.029999,478.351135 398.017181,477.194122 
	C397.950714,471.205475 397.954742,465.215393 398.015167,459.226624 
	C398.026978,458.057495 397.462219,456.238373 399.668579,456.383270 
	C401.426758,456.498718 400.944733,458.034973 400.990356,459.091766 
	C401.068756,460.906677 401.012085,462.727448 401.012085,464.852692 
	C404.801971,464.014832 408.705566,462.768616 410.953064,466.749542 
	C413.188568,470.709198 411.760986,475.204803 411.853333,479.465668 
	C411.868286,480.156128 411.006561,480.347626 410.289520,480.286957 
	C409.188110,480.193726 409.010559,479.423676 409.003967,478.545197 
	C408.987701,476.382507 409.064270,474.216125 408.964447,472.057678 
	C408.813965,468.803986 407.640228,466.525909 403.406677,467.391174 
z"/>
<path fill="#E5EDFF" opacity="1.000000" stroke="none" 
	d="
M314.474182,468.518494 
	C315.456604,470.633362 315.624481,472.712738 317.523743,474.658539 
	C318.742584,471.592377 319.896088,468.829102 320.934601,466.023285 
	C321.506836,464.477264 322.609650,463.775970 324.003448,464.412384 
	C325.655029,465.166504 324.366882,466.440826 324.018890,467.377319 
	C322.690155,470.953278 321.251770,474.488831 319.828003,478.028900 
	C319.331299,479.263885 318.869904,480.506409 317.107605,480.438751 
	C315.327911,480.370453 315.076904,479.003906 314.595062,477.802032 
	C313.301270,474.574799 311.997009,471.351166 310.756989,468.103180 
	C310.285370,466.867889 308.687134,465.292877 310.744415,464.376282 
	C312.568726,463.563568 313.266388,465.353424 313.847015,466.758423 
	C314.036407,467.216797 314.152557,467.705444 314.474182,468.518494 
z"/>
<path fill="#E9F0FF" opacity="1.000000" stroke="none" 
	d="
M445.235229,467.002838 
	C437.592072,466.769043 436.643097,467.699463 436.390045,474.740021 
	C436.322327,476.624084 437.779633,480.088776 434.845734,480.089233 
	C431.449677,480.089752 433.536407,476.511261 433.093048,474.558441 
	C432.807037,473.298737 432.922089,471.908417 433.066345,470.599670 
	C433.292023,468.552368 432.076080,465.034180 433.940704,464.775757 
	C436.678619,464.396301 439.596161,463.693298 442.486328,464.096802 
	C444.433228,464.368652 443.852997,466.033691 444.705933,467.083557 
	C445.158691,467.004791 445.210938,467.013367 445.235229,467.002838 
z"/>
<path fill="#E9F0FF" opacity="1.000000" stroke="none" 
	d="
M349.541565,464.386261 
	C351.037903,464.159485 352.189911,464.036041 353.336792,464.072693 
	C354.199097,464.100220 354.985718,464.467041 355.014008,465.504639 
	C355.040680,466.482147 354.355804,467.214783 353.520782,467.138214 
	C346.916168,466.532593 347.597992,471.223602 347.461426,475.336761 
	C347.439484,475.997864 347.469604,476.660583 347.452087,477.321930 
	C347.417664,478.621979 347.669250,480.210815 345.751831,480.302704 
	C343.653015,480.403320 344.077484,478.702301 344.054779,477.461884 
	C344.009460,474.981049 344.264374,472.473633 343.988831,470.022858 
	C343.531097,465.951721 344.355286,463.430115 349.541565,464.386261 
z"/>
<path fill="#2979E4" opacity="1.000000" stroke="none" 
	d="
M197.755524,224.786606 
	C197.160873,224.811066 196.317429,224.628342 195.249725,224.202469 
	C195.852554,224.166031 196.679642,224.372726 197.755524,224.786606 
z"/>
<path fill="#2B79E1" opacity="1.000000" stroke="none" 
	d="
M188.247162,221.207336 
	C188.846390,221.177551 189.681671,221.372711 190.753479,221.792328 
	C190.154404,221.821945 189.318817,221.627106 188.247162,221.207336 
z"/>
<path fill="#2B79E1" opacity="1.000000" stroke="none" 
	d="
M187.991776,221.007660 
	C187.703461,220.909134 187.422699,220.803131 187.141953,220.697113 
	C187.367523,220.701294 187.593094,220.705505 187.914886,220.846039 
	C188.011093,220.982391 187.999329,221.000183 187.991776,221.007660 
z"/>
<path fill="#2B79E1" opacity="1.000000" stroke="none" 
	d="
M192.802750,222.793808 
	C192.461288,222.813980 191.923920,222.624008 191.188263,222.225403 
	C190.989975,222.016785 191.000778,221.999725 191.008270,221.992401 
	C191.546112,222.184601 192.076477,222.384140 192.802750,222.793808 
z"/>
<path fill="#2C78DF" opacity="1.000000" stroke="none" 
	d="
M183.117706,218.459763 
	C183.155396,218.536728 182.826797,218.557541 182.826797,218.557541 
	C182.826797,218.557541 183.080017,218.382797 183.117706,218.459763 
z"/>
<path fill="#2979E4" opacity="1.000000" stroke="none" 
	d="
M194.980438,224.016754 
	C194.440781,223.827911 193.917419,223.620987 193.196350,223.209015 
	C192.998657,223.003952 192.999817,222.999725 193.002502,222.998032 
	C193.543274,223.181351 194.081360,223.366348 194.822464,223.755341 
	C195.025467,223.959335 194.996719,223.998657 194.980438,224.016754 
z"/>
<path fill="#2C78DF" opacity="1.000000" stroke="none" 
	d="
M180.131790,217.572952 
	C180.074265,217.636765 179.874268,217.409470 179.874268,217.409470 
	C179.874268,217.409470 180.189316,217.509140 180.131790,217.572952 
z"/>
<path fill="#2979E4" opacity="1.000000" stroke="none" 
	d="
M197.997314,225.001846 
	C197.994629,225.003723 198.050415,225.108521 198.027374,225.051147 
	C198.004318,224.993790 198.000000,224.999969 197.997314,225.001846 
z"/>
<path fill="#027DFC" opacity="1.000000" stroke="none" 
	d="
M258.857147,362.869690 
	C267.460663,354.625092 277.386749,353.669189 287.861816,356.745758 
	C296.987885,359.426117 301.098297,366.606659 303.212097,375.384277 
	C303.920593,378.326355 303.328705,379.078796 300.330994,379.054535 
	C285.365021,378.933350 270.396301,378.895203 255.431519,379.075043 
	C251.862106,379.117950 251.625336,377.793762 252.473602,374.982147 
	C253.785248,370.634705 255.627228,366.596100 258.857147,362.869690 
z"/>
<path fill="#067FFF" opacity="1.000000" stroke="none" 
	d="
M452.833649,467.029785 
	C454.578857,467.724762 456.579193,469.146301 455.664459,470.072266 
	C453.762604,471.997437 450.868439,470.700134 448.271088,470.843201 
	C448.348633,467.929810 450.060425,467.095947 452.833649,467.029785 
z"/>
<path fill="#047EFF" opacity="1.000000" stroke="none" 
	d="
M301.814423,467.036530 
	C303.566254,467.728638 305.579041,469.159149 304.642365,470.080811 
	C302.723877,471.968475 299.829529,470.736298 297.136566,470.810944 
	C297.334961,467.903778 299.072357,467.111664 301.814423,467.036530 
z"/>
<path fill="#0B81FF" opacity="1.000000" stroke="none" 
	d="
M334.734406,470.963531 
	C332.889862,470.532928 330.788971,472.061066 330.074280,469.878357 
	C329.700775,468.737549 331.025574,467.793365 332.056000,467.342133 
	C333.873108,466.546356 335.694550,466.790009 336.949402,468.445984 
	C338.862671,470.970856 336.998932,471.005585 334.734406,470.963531 
z"/>
<path fill="#1082FF" opacity="1.000000" stroke="none" 
	d="
M422.098450,466.999420 
	C424.773071,466.935699 426.248932,467.922333 426.855591,470.769623 
	C424.131348,470.794952 421.237579,472.070312 419.206299,470.040985 
	C418.249451,469.085114 420.336365,467.688629 422.098450,466.999420 
z"/>
</svg>